# xmcd CD database file
#
# Track frame offsets:
#	150
#	19520
#	42645
#	63275
#	80082
#	96297
#	115487
#	133495
#	155687
#	178527
#	194100
#
# Disc length: 2876 seconds
#
# Revision: 0
# Processed by: cddbd v1.5.1PL0 Copyright (c) Steve Scherf et al.
# Submitted via: CDex 1.51
#
DISCID=a40b3a0b
DTITLE=ZAK - Across The Brazos
DYEAR=1989
DGENRE=Country
TTITLE0=start walking again
TTITLE1=turn to stone
TTITLE2=losers
TTITLE3=wild is wild
TTITLE4=my one and only
TTITLE5=father unto son
TTITLE6=don't look back
TTITLE7=story of the highway
TTITLE8=only lights
TTITLE9=lucky day
TTITLE10=letter to buddy
EXTD=YEAR: 1989
EXTT0=
EXTT1=
EXTT2=
EXTT3=
EXTT4=
EXTT5=
EXTT6=
EXTT7=
EXTT8=
EXTT9=
EXTT10=
PLAYORDER=
